<?xml version="1.0" encoding="utf-8"?>
<!-- Generator: Adobe Illustrator 19.0.0, SVG Export Plug-In . SVG Version: 6.00 Build 0)  -->
<svg version="1.1" id="Layer_1" xmlns="http://www.w3.org/2000/svg" xmlns:xlink="http://www.w3.org/1999/xlink" x="0px" y="0px"
	 viewBox="0 0 3851.7 1388.3" style="enable-background:new 0 0 3851.7 1388.3;" xml:space="preserve">
<style type="text/css">
	.st0{fill:url(#XMLID_79_);}
	.st1{fill:url(#XMLID_80_);}
	.st2{fill:url(#XMLID_81_);}
	.st3{fill:url(#XMLID_82_);}
	.st4{fill:url(#XMLID_83_);}
	.st5{fill:url(#XMLID_84_);}
	.st6{fill:#F38500;}
	.st7{fill:url(#XMLID_85_);}
	.st8{fill:url(#XMLID_86_);}
	.st9{fill:url(#XMLID_87_);}
	.st10{fill:url(#XMLID_88_);}
	.st11{fill:url(#XMLID_89_);}
	.st12{fill:url(#XMLID_90_);}
	.st13{fill:url(#XMLID_91_);}
	.st14{fill:url(#XMLID_92_);}
	.st15{fill:url(#XMLID_93_);}
	.st16{fill:url(#XMLID_94_);}
	.st17{fill:url(#XMLID_95_);}
	.st18{fill:url(#XMLID_96_);}
</style>
<g id="XMLID_12_">
	<g id="XMLID_21_">
		<linearGradient id="XMLID_79_" gradientUnits="userSpaceOnUse" x1="574.8823" y1="892.0665" x2="1020.5053" y2="892.0665">
			<stop  offset="0" style="stop-color:#E4BA02"/>
			<stop  offset="0.5739" style="stop-color:#E4B702"/>
			<stop  offset="1" style="stop-color:#E4AE02"/>
		</linearGradient>
		<path id="XMLID_1014_" class="st0" d="M574.9,600.7c14.6,2,28.3,5.7,40.7,10.4c38.9,14.4,66.4,37.8,76.2,47c3,2.8,4.4,4.4,4.4,4.4
			c49.4,49.7,90.6,163.4,0.4,271.8c-41.4,49.8-42,96.8-42,97.2v1c-0.1,0.6-1.5,59.3,31.1,105.6c3.7,5.4,7.9,10.6,12.7,15.6
			c1.3,1.3,2.6,2.6,4,3.9c46.9,44,151.4,72.6,226.6-5.7c127.4-136,121-349.9-15-477.4C820.2,586.5,689.1,562.5,574.9,600.7"/>
		<linearGradient id="XMLID_80_" gradientUnits="userSpaceOnUse" x1="211.9658" y1="667.5798" x2="740.8595" y2="667.5798">
			<stop  offset="0" style="stop-color:#E4BA02"/>
			<stop  offset="0.5739" style="stop-color:#E4B702"/>
			<stop  offset="1" style="stop-color:#E4AE02"/>
		</linearGradient>
		<path id="XMLID_1013_" class="st1" d="M212,98c0,0,131.7,77.3,110.7,280c-21,202.8-135.2,439.1,16.2,671.6
			c155.4,238.5,402,181.5,402,181.5s-285-95.5-217.6-394.7c47.4-210.2,74.7-311.3,28.7-471C514.3,234.7,425.8,118.2,212,98"/>
	</g>
	<g id="XMLID_11_">
		<g id="XMLID_8_">
			<g id="XMLID_7_">
				<linearGradient id="XMLID_81_" gradientUnits="userSpaceOnUse" x1="3139.0037" y1="773.2369" x2="3219.4048" y2="773.2369">
					<stop  offset="0" style="stop-color:#F08902"/>
					<stop  offset="0.5688" style="stop-color:#F48302"/>
					<stop  offset="1" style="stop-color:#F97B02"/>
				</linearGradient>
				<rect id="XMLID_1017_" x="3139" y="523.1" class="st2" width="80.4" height="500.2"/>
				<linearGradient id="XMLID_82_" gradientUnits="userSpaceOnUse" x1="3326.9116" y1="667.5798" x2="3618.7566" y2="667.5798">
					<stop  offset="0" style="stop-color:#F97B02"/>
					<stop  offset="1" style="stop-color:#FD7500"/>
				</linearGradient>
				<path id="XMLID_1016_" class="st3" d="M3592.5,904c-34.5,21.5-67.9,32.1-100.1,32.1c-53.6,0-83.5-28.5-83.5-104.8l0.2-233.6
					h144.3v-74.6h-144.3l-0.2-214.7h-82V848c0,123.9,67.9,178.8,159.7,178.8c50-1.1,88-17.9,132.2-47.7L3592.5,904z"/>
			</g>
			<g id="XMLID_4_">
				<linearGradient id="XMLID_83_" gradientUnits="userSpaceOnUse" x1="1179.5977" y1="666.5543" x2="1687.1891" y2="666.5543">
					<stop  offset="0" style="stop-color:#E4AE02"/>
					<stop  offset="0.5295" style="stop-color:#E5A004"/>
					<stop  offset="1" style="stop-color:#E69A05"/>
				</linearGradient>
				<path id="XMLID_1010_" class="st4" d="M1445.9,960.4c-104.9,0-178.6-76.5-178.6-185.2c0-107.7,73.7-185.2,178.6-185.2
					c104.1,0,177.7,78.4,177.7,185.2C1623.7,882.9,1550,960.4,1445.9,960.4 M1448,521c-87,0-155.1,40.7-191.9,110.6V308.5
					l-76.5,78.7v389.6c0,135.8,112.1,246.3,247.9,247.7l22.4,0.2c140.8,0,237.3-103,237.3-250.4C1687.2,624.9,1588.9,521,1448,521"
					/>
				<linearGradient id="XMLID_84_" gradientUnits="userSpaceOnUse" x1="2284.4956" y1="773.4799" x2="2527.9429" y2="773.4799">
					<stop  offset="0" style="stop-color:#EB9101"/>
					<stop  offset="0.2949" style="stop-color:#EE8D02"/>
					<stop  offset="1" style="stop-color:#F08902"/>
				</linearGradient>
				<path id="XMLID_1009_" class="st5" d="M2284.5,690.5v334.2h81.6V707.8c0-76.3,64.2-121.5,161.5-121.5l0.3-64.1
					C2396.2,522.3,2284.5,586.3,2284.5,690.5"/>
				<path id="XMLID_1008_" class="st6" d="M2806,522.7h-4.7c-120.2,0-206.4,76.2-206.4,200.3v301.6h76.2v-281
					c0-90.9,42.2-144.7,131.1-144.7h4.9c88.9,0,129.7,53.8,129.7,144.7v281h76.3V723.1C3013.1,598.9,2926.3,522.7,2806,522.7"/>
				<linearGradient id="XMLID_85_" gradientUnits="userSpaceOnUse" x1="1749.3809" y1="773.956" x2="2186.1865" y2="773.956">
					<stop  offset="0" style="stop-color:#E4A304"/>
					<stop  offset="0.462" style="stop-color:#E89802"/>
					<stop  offset="1" style="stop-color:#EB9101"/>
				</linearGradient>
				<path id="XMLID_1007_" class="st7" d="M2105.7,523.2l0.5,269.7c0,95.4-44.1,151.7-137.5,151.7h-1.9
					c-93.2,0-137.5-56.4-137.5-151.7V524.7v-1.5h-80V607v207.4c0,130.2,91.1,210.3,217.3,210.3h2.3c52.6,0,99.8-14.3,136.1-40v40
					h81.1l-0.6-501.5H2105.7z"/>
			</g>
		</g>
		<g id="XMLID_9_">
			<linearGradient id="XMLID_86_" gradientUnits="userSpaceOnUse" x1="1456.9998" y1="1206.1755" x2="1558.6029" y2="1206.1755">
				<stop  offset="0" style="stop-color:#E4A503"/>
				<stop  offset="1" style="stop-color:#E4A205"/>
			</linearGradient>
			<polygon id="XMLID_151_" class="st8" points="1457,1281.6 1457,1130.8 1476.2,1130.7 1476.2,1196.6 1539.4,1196.6 1539.4,1130.8 
				1558.6,1130.8 1558.6,1281.6 1539.4,1281.6 1539.4,1215.8 1476.2,1215.8 1476.2,1281.6 			"/>
			<linearGradient id="XMLID_87_" gradientUnits="userSpaceOnUse" x1="2668.0217" y1="1206.2135" x2="2766.3311" y2="1206.2135">
				<stop  offset="0" style="stop-color:#EF8903"/>
				<stop  offset="1" style="stop-color:#F38301"/>
			</linearGradient>
			<polygon id="XMLID_121_" class="st9" points="2668,1281.6 2668,1130.8 2766.3,1130.8 2766.3,1149.9 2687.2,1149.9 2687.2,1196.6 
				2766.3,1196.6 2766.3,1215.8 2687.2,1215.8 2687.2,1262.5 2766.3,1262.5 2766.3,1281.7 			"/>
			<linearGradient id="XMLID_88_" gradientUnits="userSpaceOnUse" x1="3592.53" y1="1205.8794" x2="3690.8394" y2="1205.8794">
				<stop  offset="0" style="stop-color:#FC7700"/>
				<stop  offset="1" style="stop-color:#FF7400"/>
			</linearGradient>
			<polygon id="XMLID_6_" class="st10" points="3592.5,1281.3 3592.5,1130.5 3690.8,1130.4 3690.8,1149.6 3611.7,1149.6 
				3611.7,1196.3 3690.8,1196.3 3690.8,1215.5 3611.7,1215.5 3611.7,1262.2 3690.8,1262.2 3690.8,1281.3 			"/>
			<linearGradient id="XMLID_89_" gradientUnits="userSpaceOnUse" x1="2967.1189" y1="1206.1755" x2="3071.6243" y2="1206.1755">
				<stop  offset="0" style="stop-color:#F38301"/>
				<stop  offset="1" style="stop-color:#F87D02"/>
			</linearGradient>
			<polygon id="XMLID_126_" class="st11" points="2967.1,1281.6 2967.1,1130.7 2986.3,1130.7 3052.5,1241.7 3052.5,1130.8 
				3071.6,1130.8 3071.6,1281.6 3052.5,1281.6 2986.3,1170.1 2986.3,1281.6 			"/>
			<linearGradient id="XMLID_90_" gradientUnits="userSpaceOnUse" x1="2105.3645" y1="1206.2135" x2="2185.9053" y2="1206.2135">
				<stop  offset="0" style="stop-color:#E79802"/>
				<stop  offset="0.9942" style="stop-color:#EC9001"/>
				<stop  offset="1" style="stop-color:#EC9001"/>
			</linearGradient>
			<polygon id="XMLID_129_" class="st12" points="2105.4,1281.6 2105.4,1130.8 2124.5,1130.8 2124.5,1262.5 2185.9,1262.5 
				2185.9,1281.6 			"/>
			<linearGradient id="XMLID_91_" gradientUnits="userSpaceOnUse" x1="2386.6931" y1="1206.2135" x2="2467.2336" y2="1206.2135">
				<stop  offset="0" style="stop-color:#EC9001"/>
				<stop  offset="1" style="stop-color:#EF8903"/>
			</linearGradient>
			<polygon id="XMLID_5_" class="st13" points="2386.7,1281.6 2386.7,1130.8 2405.9,1130.8 2405.9,1262.5 2467.2,1262.5 
				2467.2,1281.6 			"/>
			<linearGradient id="XMLID_92_" gradientUnits="userSpaceOnUse" x1="1759.3909" y1="1206.2504" x2="1904.5767" y2="1206.2504">
				<stop  offset="0" style="stop-color:#E4A205"/>
				<stop  offset="0.8487" style="stop-color:#E69A03"/>
				<stop  offset="1" style="stop-color:#E79802"/>
			</linearGradient>
			<path id="XMLID_4831_" class="st14" d="M1865.4,1238.7h-67.2l-17.6,42.9h-21.2l61.8-150.6h20.4l63,150.6h-21.2L1865.4,1238.7z
				 M1806.2,1219.1l51,0l-25.8-61.6L1806.2,1219.1z"/>
			<linearGradient id="XMLID_93_" gradientUnits="userSpaceOnUse" x1="3272.4121" y1="1205.8794" x2="3391.7419" y2="1205.8794">
				<stop  offset="0" style="stop-color:#F87D02"/>
				<stop  offset="1" style="stop-color:#FC7700"/>
			</linearGradient>
			<path id="XMLID_223_" class="st15" d="M3389.4,1196.6l0.1,69.2c-12.2,9.5-27.5,15.2-44,15.2c-48,0-73-33.6-73-75.1
				c0-46.2,32.7-75.1,73-75.1c17.6,0,33.7,6.4,46.3,17l-12.9,13.3c-9-6.7-20-10.7-32-10.7c-30.1,0-54.5,21.6-54.5,56
				c0,30.9,18.6,56,54.5,56c7.9,0,15.5-1.7,22.3-4.9l0.4-41.9h-27.6v-19.2L3389.4,1196.6z"/>
			<linearGradient id="XMLID_94_" gradientUnits="userSpaceOnUse" x1="1129.8976" y1="1206.2689" x2="1256.2118" y2="1206.2689">
				<stop  offset="0" style="stop-color:#E4B800"/>
				<stop  offset="0.7748" style="stop-color:#E4A804"/>
				<stop  offset="1" style="stop-color:#E4A205"/>
			</linearGradient>
			<path id="XMLID_225_" class="st16" d="M1236.4,1186.9c-6.4-21.3-23-36.9-42.3-36.9c-24.9,0-45.1,25.2-45.1,56.3
				c0,31.1,20.2,56.3,45.1,56.3c19.1,0,35.8-15.9,42.3-36.9h19.8c-7.6,31.9-32.7,56.4-62.1,56.4c-35.5,0-64.2-33.9-64.2-75.7
				c0-41.8,28.8-75.7,64.2-75.7c29.6,0,54.7,24.2,62.1,56.4L1236.4,1186.9z"/>
		</g>
	</g>
</g>
<g id="XMLID_1_">
	<linearGradient id="XMLID_95_" gradientUnits="userSpaceOnUse" x1="-3033.7131" y1="3174.1663" x2="-2990.0808" y2="3174.1663">
		<stop  offset="0" style="stop-color:#E4BA02"/>
		<stop  offset="0.5739" style="stop-color:#E4B702"/>
		<stop  offset="1" style="stop-color:#E4AE02"/>
	</linearGradient>
	<path id="XMLID_3_" class="st17" d="M-3033.7,3145.6c1.4,0.2,2.8,0.6,4,1c3.8,1.4,6.5,3.7,7.5,4.6c0.3,0.3,0.4,0.4,0.4,0.4
		c4.8,4.9,8.9,16,0,26.6c-4.1,4.9-4.1,9.5-4.1,9.5v0.1c0,0.1-0.1,5.8,3,10.3c0.4,0.5,0.8,1,1.2,1.5c0.1,0.1,0.3,0.3,0.4,0.4
		c4.6,4.3,14.8,7.1,22.2-0.6c12.5-13.3,11.9-34.3-1.5-46.7C-3009.7,3144.2-3022.5,3141.9-3033.7,3145.6"/>
	<linearGradient id="XMLID_96_" gradientUnits="userSpaceOnUse" x1="-3069.2476" y1="3152.186" x2="-3017.4619" y2="3152.186">
		<stop  offset="0" style="stop-color:#E4BA02"/>
		<stop  offset="0.5739" style="stop-color:#E4B702"/>
		<stop  offset="1" style="stop-color:#E4AE02"/>
	</linearGradient>
	<path id="XMLID_2_" class="st18" d="M-3069.2,3096.4c0,0,12.9,7.6,10.8,27.4c-2.1,19.9-13.2,43,1.6,65.8
		c15.2,23.4,39.4,17.8,39.4,17.8s-27.9-9.4-21.3-38.6c4.6-20.6,7.3-30.5,2.8-46.1C-3039.6,3109.8-3048.3,3098.4-3069.2,3096.4"/>
</g>
</svg>
